<?xml version="1.0" standalone="no"?>
<!DOCTYPE svg PUBLIC "-//W3C//DTD SVG 20010904//EN"
 "http://www.w3.org/TR/2001/REC-SVG-20010904/DTD/svg10.dtd">
<svg version="1.0" xmlns="http://www.w3.org/2000/svg"
 width="126.000000pt" height="147.000000pt" viewBox="0 0 126.000000 147.000000"
 preserveAspectRatio="xMidYMid meet">
<metadata>
Created by potrace 1.16, written by Peter Selinger 2001-2019
</metadata>
<g transform="translate(0.000000,147.000000) scale(0.100000,-0.100000)"
fill="#0000FF" stroke="none">
<path d="M80 1440 c0 -20 7 -20 385 -20 378 0 385 0 385 20 0 20 -7 20 -385
20 -378 0 -385 0 -385 -20z"/>
<path d="M20 730 l0 -680 25 0 25 0 0 680 0 680 -25 0 -25 0 0 -680z"/>
<path d="M850 1320 l0 -90 -150 0 -150 0 0 -24 c0 -19 -6 -25 -27 -28 l-28 -3
-3 -327 -2 -328 30 0 c25 0 30 -4 30 -25 0 -21 5 -25 30 -25 25 0 30 4 30 25
0 21 5 25 30 25 27 0 30 3 30 30 0 27 -3 30 -30 30 -27 0 -30 -3 -30 -30 0
-27 -3 -30 -30 -30 l-30 0 0 330 0 330 330 0 330 0 0 -270 0 -270 25 0 25 0 0
270 0 270 -25 0 c-20 0 -25 5 -25 25 l0 25 -150 0 -150 0 0 90 0 90 -30 0 -30
0 0 -90z"/>
<path d="M730 610 l0 -30 60 0 60 0 0 -265 0 -265 30 0 30 0 0 265 0 265 145
0 145 0 0 30 0 30 -235 0 -235 0 0 -30z"/>
<path d="M80 20 c0 -20 7 -20 385 -20 378 0 385 0 385 20 0 20 -7 20 -385 20
-378 0 -385 0 -385 -20z"/>
</g>
</svg>
